<?xml version="1.0" encoding="utf-8"?>
<!-- Generator: Adobe Illustrator 18.0.0, SVG Export Plug-In . SVG Version: 6.00 Build 0)  -->
<!DOCTYPE svg PUBLIC "-//W3C//DTD SVG 1.0//EN" "http://www.w3.org/TR/2001/REC-SVG-20010904/DTD/svg10.dtd">
<svg version="1.0" id="Layer_1" xmlns="http://www.w3.org/2000/svg" xmlns:xlink="http://www.w3.org/1999/xlink" x="0px" y="0px"
	 width="80.9px" height="100.1px" viewBox="0 0 80.9 100.1" enable-background="new 0 0 80.9 100.1" xml:space="preserve">
<g>
	<path fill="#808285" d="M41,19.2c-2,0-4,0.1-5.9,0.3C15.3,22.2,0.3,39.2,0,59.1c-0.1,10.8,3.9,21,11.5,28.8
		c7.5,7.7,17.6,12.1,28.4,12.2c2,0,4-0.1,5.9-0.4c19.7-2.6,34.8-19.6,35.1-39.5C81.2,37.9,63.3,19.5,41,19.2z"/>
	<g>
		<path d="M46.7,48.8l-5.5,1.3c-0.1,0-0.2,0.2-0.2,0.3l1.6,6.8l-12.8-4.7c-0.1,0-0.2,0-0.2,0c-0.1,0-0.1,0.1-0.1,0.2l4.3,17.7
			c0,0.1,0.2,0.2,0.3,0.2l5.4-1.3c0.1,0,0.2-0.2,0.2-0.3l-1.7-7.1L51,67c0,0,0.1,0,0.1,0c0,0,0.1,0,0.1,0c0.1-0.1,0.1-0.1,0.1-0.2
			L47,48.9C46.9,48.8,46.8,48.7,46.7,48.8z"/>
		<path d="M27.6,53.3c-0.1-0.4-0.4-0.6-0.8-0.5l-4.4,1.1c-0.2,0-0.3,0.2-0.4,0.3c-0.1,0.1-0.1,0.3-0.1,0.5l2.3,9.4
			c0.5,1.9-0.3,3.4-2.1,3.8c-1.8,0.4-3.3-0.5-3.7-2.4l-2.3-9.4c-0.1-0.4-0.4-0.6-0.8-0.5l-4.4,1.1c-0.2,0-0.3,0.2-0.4,0.3
			c-0.1,0.1-0.1,0.3-0.1,0.5l2.5,10c1.2,4.9,5.4,7.3,10.6,6c1.2-0.3,2.3-0.7,3.2-1.3c3-1.9,4.2-5.1,3.3-8.9L27.6,53.3z"/>
		<path d="M70.3,61.3l-2.5-10C67.3,48.9,66,47.1,64,46c-1.9-1.1-4.2-1.3-6.8-0.7c-1.2,0.3-2.3,0.7-3.2,1.3c-3,1.9-4.2,5.1-3.3,8.9
			l2.5,10c0.1,0.4,0.5,0.6,0.8,0.5l4.4-1.1c0.2,0,0.3-0.2,0.4-0.3c0.1-0.1,0.1-0.3,0.1-0.5L58.1,61l5.8-1.4l0.8,3.1
			c0,0.2,0.2,0.3,0.3,0.4c0.1,0.1,0.3,0.1,0.5,0.1l4.4-1.1c0.1,0,0.1,0,0.2-0.1C70.3,61.9,70.4,61.6,70.3,61.3z M57.1,57l-0.7-2.9
			c-0.5-1.9,0.3-3.4,2.1-3.8c0.9-0.2,1.7-0.1,2.3,0.3c0.7,0.4,1.2,1.1,1.4,2.1l0.7,2.9L57.1,57z"/>
		<path d="M41,19.2c-2,0-4,0.1-5.9,0.3C15.3,22.2,0.3,39.2,0,59.1c-0.1,10.8,3.9,21,11.5,28.8c7.5,7.7,17.6,12.1,28.4,12.2
			c2,0,4-0.1,5.9-0.4c19.7-2.6,34.8-19.6,35.1-39.5C81.2,37.9,63.3,19.5,41,19.2z M45.4,96.5c-1.8,0.2-3.6,0.3-5.5,0.3
			c-9.9-0.1-19.2-4.1-26.1-11.2C6.9,78.5,3.1,69.1,3.3,59.2c0.2-18.3,14.1-33.9,32.2-36.4c1.8-0.2,3.6-0.3,5.5-0.3
			c20.5,0.3,37,17.2,36.7,37.7C77.4,78.5,63.5,94.1,45.4,96.5z"/>
	</g>
	<g>
		<path d="M29.4,23.4c-6.4,0-11.7-5.2-11.7-11.7S22.9,0,29.4,0s11.7,5.2,11.7,11.7S35.8,23.4,29.4,23.4z M29.4,5
			c-3.7,0-6.7,3-6.7,6.7s3,6.7,6.7,6.7s6.7-3,6.7-6.7S33.1,5,29.4,5z"/>
	</g>
</g>
</svg>
